<?xml version="1.0" encoding="UTF-8" standalone="no"?>
<!-- Generator: Adobe Illustrator 22.0.1, SVG Export Plug-In . SVG Version: 6.00 Build 0)  -->

<svg
   xmlns:dc="http://purl.org/dc/elements/1.1/"
   xmlns:cc="http://creativecommons.org/ns#"
   xmlns:rdf="http://www.w3.org/1999/02/22-rdf-syntax-ns#"
   xmlns:svg="http://www.w3.org/2000/svg"
   xmlns="http://www.w3.org/2000/svg"
   xmlns:sodipodi="http://sodipodi.sourceforge.net/DTD/sodipodi-0.dtd"
   xmlns:inkscape="http://www.inkscape.org/namespaces/inkscape"
   version="1.1"
   x="0px"
   y="0px"
   viewBox="0 0 139.5808 123.82136"
   xml:space="preserve"
   id="svg4409"
   sodipodi:docname="oblako.svg"
   width="139.5808"
   height="123.82136"
   inkscape:version="0.92.3 (2405546, 2018-03-11)"><metadata
   id="metadata4415"><rdf:RDF><cc:Work
       rdf:about=""><dc:format>image/svg+xml</dc:format><dc:type
         rdf:resource="http://purl.org/dc/dcmitype/StillImage" /><dc:title></dc:title></cc:Work></rdf:RDF></metadata><defs
   id="defs4413" /><sodipodi:namedview
   pagecolor="#ffffff"
   bordercolor="#666666"
   borderopacity="1"
   objecttolerance="10"
   gridtolerance="10"
   guidetolerance="10"
   inkscape:pageopacity="0"
   inkscape:pageshadow="2"
   inkscape:window-width="1920"
   inkscape:window-height="1052"
   id="namedview4411"
   showgrid="false"
   inkscape:pagecheckerboard="false"
   fit-margin-top="0"
   fit-margin-left="0"
   fit-margin-right="0"
   fit-margin-bottom="0"
   inkscape:zoom="0.3325"
   inkscape:cx="538.87969"
   inkscape:cy="-85.531986"
   inkscape:window-x="0"
   inkscape:window-y="0"
   inkscape:window-maximized="1"
   inkscape:current-layer="иконки" />
<style
   type="text/css"
   id="style4084">
	.st0{fill:#99C9E9;}
	.st1{fill:#CCCCCC;}
	.st2{fill:#FFFFFF;}
	.st3{opacity:0.8;fill:#FF7BAC;}
	.st4{fill:#FF7BAC;}
	.st5{fill:none;stroke:#808080;stroke-linecap:round;stroke-miterlimit:10;}
	.st6{fill:#FFFFFF;stroke:#FFFFFF;stroke-miterlimit:10;}
	.st7{fill:none;stroke:#FFFFFF;stroke-width:2;stroke-miterlimit:10;}
	.st8{fill:none;stroke:#FF7BAC;stroke-width:3;stroke-linecap:round;stroke-miterlimit:10;}
	.st9{fill:none;stroke:#FFFFFF;stroke-width:3;stroke-linecap:round;stroke-miterlimit:10;}
	.st10{fill:#FFCADE;}
	.st11{fill:#FF95BD;}
	.st12{fill:none;stroke:#FFFFFF;stroke-width:3;stroke-linecap:round;stroke-linejoin:round;stroke-miterlimit:10;}
	.st13{font-family:'Calibri';}
	.st14{font-size:21px;}
	.st15{font-family:'Calibri-Bold';}
	.st16{font-size:36px;}
	.st17{font-family:'CenturyGothic-Bold';}
	.st18{font-family:'CenturyGothic';}
	.st19{font-size:18px;}
</style>
<g
   id="направляющие"
   transform="translate(-81.120308,-62.667671)">
</g>



<g
   id="иконки"
   transform="translate(-81.120308,-62.667671)">
	
	
	
	
	
	
	
	
	
	
	
	
	<g
   id="XMLID_1_"
   transform="translate(48.120308,27.067671)">
		<g
   id="g4266">
			<path
   class="st4"
   d="m 168.7,107.8 c 4.1,7.4 2.6,16.4 -3.7,22.1 -3.5,3.1 -7.7,4.6 -12.4,4.5 -23.6,0 -47.2,0 -70.9,0 -6,-0.2 -11.2,-5 -11.9,-10.9 -0.6,-5.2 1.1,-9.4 5.4,-12.4 1,-0.7 2.1,-1.3 3.2,-1.7 0.1,-1.5 0.3,-2.9 0.4,-4.4 0.5,-6.2 3.4,-11 8.7,-14.2 4.3,-2.6 9,-3.1 13.9,-1.9 1.1,0.3 2.2,0.5 3.4,0.8 0.5,-1.1 1,-2.1 1.5,-3.2 3,-6.3 7.6,-10.6 14,-12.5 v 0 c 0.2,-0.1 0.3,-0.1 0.5,-0.1 0.3,-0.1 0.7,-0.2 1,-0.3 0.2,0 0.3,-0.1 0.5,-0.1 0.7,-0.1 1.4,-0.3 2.1,-0.4 0.5,-0.1 0.9,-0.1 1.3,-0.1 0,0 0,0 0,0 1.3,-0.1 2.5,-0.1 3.7,0 0.2,0 0.4,0 0.6,0.1 4.9,0.5 9.3,2.6 13.3,6.3 3.9,3.7 6.1,8.2 6.8,13.5 0.2,1.6 0.4,3.2 0.5,4.9 0,0.2 0.1,0.4 0.1,0.6 0.7,0.1 1.3,0.1 2,0.2 1.5,0.2 3,0.2 4.5,0.6 5.1,1.2 9,4.1 11.5,8.6 z m -29.9,2.4 c 0,-2.1 -1.7,-3.7 -3.7,-3.7 -2.1,0 -3.7,1.7 -3.7,3.7 0,2.1 1.7,3.7 3.7,3.7 2.1,0.1 3.7,-1.6 3.7,-3.7 z m -28,0 c 0,-2.1 -1.7,-3.7 -3.7,-3.7 -2.1,0 -3.7,1.7 -3.7,3.7 0,2.1 1.7,3.7 3.7,3.7 2.1,0.1 3.7,-1.6 3.7,-3.7 z"
   id="path4242"
   inkscape:connector-curvature="0"
   style="fill:#ff7bac" />
			<circle
   class="st2"
   cx="135.10001"
   cy="110.2"
   r="3.7"
   id="circle4244"
   style="fill:#ffffff" />
			<path
   class="st10"
   d="m 136,60.5 c 0,1.3 -0.3,2.5 -0.8,3.5 -0.4,0.8 -0.9,1.6 -1.6,2.2 -1,1 -2.1,1.7 -3.5,2.1 -0.7,0.2 -1.5,0.3 -2.3,0.3 h -5.4 c -0.7,0 -1.4,-0.1 -2.1,-0.3 -3.5,-0.9 -6.1,-4.1 -6.1,-7.9 0,-2.2 0.9,-4.3 2.4,-5.7 0.4,-0.4 0.9,-0.8 1.3,-1.1 1.3,-0.8 2.8,-1.3 4.4,-1.3 h 5.4 c 1.6,0 3.1,0.5 4.4,1.3 1,0.6 1.8,1.5 2.5,2.5 0.9,1.3 1.4,2.8 1.4,4.4 z"
   id="path4246"
   inkscape:connector-curvature="0"
   style="fill:#ffcade" />
			<path
   class="st10"
   d="m 133.3,49.7 c 0,1.4 -0.4,2.8 -1,3.9 -1.3,-0.8 -2.8,-1.3 -4.4,-1.3 h -5.4 c -1.6,0 -3.1,0.5 -4.4,1.3 -0.6,-1.2 -1,-2.5 -1,-3.9 0,-2.2 0.9,-4.3 2.4,-5.7 1.5,-1.5 3.5,-2.4 5.7,-2.4 2.2,0 4.3,0.9 5.7,2.4 1.4,1.5 2.4,3.5 2.4,5.7 z"
   id="path4248"
   inkscape:connector-curvature="0"
   style="fill:#ffcade" />
			<path
   class="st10"
   d="m 130.1,68.3 v 4.8 c -0.2,0 -0.4,0 -0.6,-0.1 -1.2,-0.1 -2.4,-0.1 -3.7,0 0,0 0,0 0,0 -0.4,0 -0.9,0.1 -1.3,0.1 -0.7,0.1 -1.4,0.2 -2.1,0.4 -0.2,0 -0.4,0.1 -0.5,0.1 -0.3,0.1 -0.7,0.2 -1,0.3 -0.2,0 -0.3,0.1 -0.5,0.1 v -5.7 c 0.7,0.2 1.3,0.3 2.1,0.3 h 5.4 c 0.7,0 1.5,-0.1 2.2,-0.3 z"
   id="path4250"
   inkscape:connector-curvature="0"
   style="fill:#ffcade" />
			<path
   class="st2"
   d="m 129.6,73 c -1.2,-0.1 -2.4,-0.1 -3.7,0 1.2,-0.1 2.4,-0.1 3.7,0 z"
   id="path4252"
   inkscape:connector-curvature="0"
   style="fill:#ffffff" />
			<path
   class="st2"
   d="m 125.8,73 c -0.4,0 -0.9,0.1 -1.3,0.1 0.5,0 0.9,0 1.3,-0.1 z"
   id="path4254"
   inkscape:connector-curvature="0"
   style="fill:#ffffff" />
			<path
   class="st2"
   d="m 120.9,73.9 c 0.3,-0.1 0.7,-0.2 1,-0.3 -0.3,0.1 -0.7,0.2 -1,0.3 z"
   id="path4256"
   inkscape:connector-curvature="0"
   style="fill:#ffffff" />
			<path
   class="st2"
   d="m 120.9,73.9 c -0.2,0 -0.3,0.1 -0.5,0.1 v 0 c 0.1,0 0.3,0 0.5,-0.1 z"
   id="path4258"
   inkscape:connector-curvature="0"
   style="fill:#ffffff" />
			<path
   class="st11"
   d="m 115.5,64.8 c -0.3,0.5 -0.6,0.9 -1,1.3 -1.3,1.3 -3,2 -4.9,2 H 105 c -1.7,0 -3.3,-0.6 -4.5,-1.7 -1.5,-1.3 -2.4,-3.1 -2.4,-5.2 0,-1.9 0.8,-3.6 2,-4.9 0.1,-0.1 0.2,-0.2 0.3,-0.3 1.2,-1.1 2.8,-1.7 4.5,-1.7 h 4.6 c 2.2,0 4.2,1 5.5,2.7 -0.5,1.1 -0.8,2.3 -0.8,3.5 0.1,1.6 0.5,3 1.3,4.3 z"
   id="path4260"
   inkscape:connector-curvature="0"
   style="fill:#ff95bd" />
			<circle
   class="st2"
   cx="107.1"
   cy="110.2"
   r="3.7"
   id="circle4262"
   style="fill:#ffffff" />
			<path
   class="st11"
   d="m 100.5,56 c -0.1,0.1 -0.2,0.2 -0.3,0.3 -1.3,1.3 -2,3 -2,4.9 0,2.1 0.9,4 2.4,5.2 0,0 -13.8,18.9 -36.2,18.9 -22.4,0 -29.9,-13.6 -29.9,-24.1 0,-10.5 7.2,-24.1 29.7,-24.1 22.5,0 36.3,18.9 36.3,18.9 z"
   id="path4264"
   inkscape:connector-curvature="0"
   style="fill:#ff95bd" />
		</g>
		<g
   id="g4312">
			<path
   class="st12"
   d="m 125.8,73 c 1.3,-0.1 2.5,-0.1 3.7,0"
   id="path4268"
   inkscape:connector-curvature="0"
   style="fill:none;stroke:#ffffff;stroke-width:3;stroke-linecap:round;stroke-linejoin:round;stroke-miterlimit:10" />
			<path
   class="st12"
   d="m 124.5,73.2 c 0.5,-0.1 0.9,-0.1 1.3,-0.1"
   id="path4270"
   inkscape:connector-curvature="0"
   style="fill:none;stroke:#ffffff;stroke-width:3;stroke-linecap:round;stroke-linejoin:round;stroke-miterlimit:10" />
			<path
   class="st12"
   d="m 130.1,73.1 c 4.9,0.5 9.3,2.6 13.3,6.3 3.9,3.7 6.1,8.2 6.8,13.5 0.2,1.6 0.4,3.2 0.5,4.9 0,0.2 0.1,0.4 0.1,0.6 0.7,0.1 1.3,0.1 2,0.2 1.5,0.2 3,0.2 4.5,0.6 5.1,1.2 8.9,4.1 11.5,8.7 4.1,7.4 2.6,16.4 -3.7,22.1 -3.5,3.1 -7.7,4.6 -12.4,4.5 -23.6,0 -47.2,0 -70.9,0 -6,-0.2 -11.2,-5 -11.9,-10.9 -0.6,-5.2 1.1,-9.4 5.4,-12.4 1,-0.7 2.1,-1.3 3.2,-1.7 0.1,-1.5 0.3,-2.9 0.4,-4.4 0.5,-6.2 3.4,-11 8.7,-14.2 4.3,-2.6 9,-3.1 13.9,-1.9 1.1,0.3 2.2,0.5 3.4,0.8 0.5,-1.1 1,-2.1 1.5,-3.2 3,-6.3 7.6,-10.6 14,-12.5 0.2,-0.1 0.3,-0.1 0.5,-0.1 0.3,-0.1 0.7,-0.2 1,-0.3"
   id="path4272"
   inkscape:connector-curvature="0"
   style="fill:none;stroke:#ffffff;stroke-width:3;stroke-linecap:round;stroke-linejoin:round;stroke-miterlimit:10" />
			<path
   class="st12"
   d="m 100.5,66.4 c -1.5,-1.3 -2.4,-3.1 -2.4,-5.2 0,-1.9 0.8,-3.6 2,-4.9 0.1,-0.1 0.2,-0.2 0.3,-0.3 1.2,-1.1 2.8,-1.7 4.5,-1.7 h 4.6 c 2.2,0 4.2,1 5.5,2.7 -0.5,1.1 -0.8,2.3 -0.8,3.5 0,1.6 0.5,3.1 1.2,4.3 -0.3,0.5 -0.6,0.9 -1,1.3 -1.3,1.3 -3,2 -4.9,2 H 105 c -1.7,0 -3.3,-0.6 -4.5,-1.7 z"
   id="path4274"
   inkscape:connector-curvature="0"
   style="fill:none;stroke:#ffffff;stroke-width:3;stroke-linecap:round;stroke-linejoin:round;stroke-miterlimit:10" />
			<path
   class="st12"
   d="m 120.4,68.3 c -3.5,-0.9 -6.1,-4.1 -6.1,-7.9 0,-2.2 0.9,-4.3 2.4,-5.7 0.4,-0.4 0.9,-0.8 1.3,-1.1"
   id="path4276"
   inkscape:connector-curvature="0"
   style="fill:none;stroke:#ffffff;stroke-width:3;stroke-linecap:round;stroke-linejoin:round;stroke-miterlimit:10" />
			<path
   class="st12"
   d="m 132.2,53.7 c 1,0.6 1.8,1.5 2.5,2.5 0.8,1.3 1.3,2.7 1.3,4.3 0,1.3 -0.3,2.5 -0.8,3.5 -0.4,0.8 -0.9,1.6 -1.6,2.2 -1,1 -2.1,1.7 -3.5,2.1"
   id="path4278"
   inkscape:connector-curvature="0"
   style="fill:none;stroke:#ffffff;stroke-width:3;stroke-linecap:round;stroke-linejoin:round;stroke-miterlimit:10" />
			<path
   class="st12"
   d="m 118,53.7 c -0.6,-1.2 -1,-2.5 -1,-3.9 0,-2.2 0.9,-4.3 2.4,-5.7 1.5,-1.5 3.5,-2.4 5.7,-2.4 2.2,0 4.3,0.9 5.7,2.4 1.5,1.5 2.4,3.5 2.4,5.7 0,1.4 -0.4,2.8 -1,3.9 -1.3,-0.8 -2.8,-1.3 -4.4,-1.3 h -5.4 c -1.6,0 -3.1,0.4 -4.4,1.3 z"
   id="path4280"
   inkscape:connector-curvature="0"
   style="fill:none;stroke:#ffffff;stroke-width:3;stroke-linecap:round;stroke-linejoin:round;stroke-miterlimit:10" />
			<path
   class="st12"
   d="m 100.5,56 c 0,0 -13.8,-18.9 -36.2,-18.9 -22.4,0 -29.8,13.6 -29.8,24.1 0,10.5 7.2,24.1 29.7,24.1 22.5,0 36.2,-18.9 36.2,-18.9"
   id="path4282"
   inkscape:connector-curvature="0"
   style="fill:none;stroke:#ffffff;stroke-width:3;stroke-linecap:round;stroke-linejoin:round;stroke-miterlimit:10" />
			<path
   class="st12"
   d="m 130.1,68.3 v 4.8 c -0.2,0 -0.4,0 -0.6,-0.1 -1.2,-0.1 -2.4,-0.1 -3.7,0 0,0 0,0 0,0 -0.4,0 -0.9,0.1 -1.3,0.1 -0.7,0.1 -1.4,0.2 -2.1,0.4 -0.2,0 -0.4,0.1 -0.5,0.1 -0.3,0.1 -0.7,0.2 -1,0.3 -0.2,0 -0.3,0.1 -0.5,0.1 v 0 -5.7 c 0.7,0.2 1.3,0.3 2.1,0.3 h 5.4 c 0.7,0 1.5,-0.1 2.2,-0.3 z"
   id="path4284"
   inkscape:connector-curvature="0"
   style="fill:none;stroke:#ffffff;stroke-width:3;stroke-linecap:round;stroke-linejoin:round;stroke-miterlimit:10" />
			<path
   class="st12"
   d="m 116.2,121.8 c 0,0 1.5,2.6 4.8,2.6 3.3,0 5,-2.6 5,-2.6"
   id="path4286"
   inkscape:connector-curvature="0"
   style="fill:none;stroke:#ffffff;stroke-width:3;stroke-linecap:round;stroke-linejoin:round;stroke-miterlimit:10" />
			<line
   class="st12"
   x1="111.2"
   y1="139.10001"
   x2="110.1"
   y2="146.39999"
   id="line4288"
   style="fill:none;stroke:#ffffff;stroke-width:3;stroke-linecap:round;stroke-linejoin:round;stroke-miterlimit:10" />
			<line
   class="st12"
   x1="109.4"
   y1="150.5"
   x2="108.3"
   y2="157.8"
   id="line4290"
   style="fill:none;stroke:#ffffff;stroke-width:3;stroke-linecap:round;stroke-linejoin:round;stroke-miterlimit:10" />
			<line
   class="st12"
   x1="99.800003"
   y1="139"
   x2="98.300003"
   y2="146.2"
   id="line4292"
   style="fill:none;stroke:#ffffff;stroke-width:3;stroke-linecap:round;stroke-linejoin:round;stroke-miterlimit:10" />
			<line
   class="st12"
   x1="97.400002"
   y1="150.3"
   x2="95.900002"
   y2="157.5"
   id="line4294"
   style="fill:none;stroke:#ffffff;stroke-width:3;stroke-linecap:round;stroke-linejoin:round;stroke-miterlimit:10" />
			<line
   class="st12"
   x1="130.8"
   y1="139.10001"
   x2="131.89999"
   y2="146.39999"
   id="line4296"
   style="fill:none;stroke:#ffffff;stroke-width:3;stroke-linecap:round;stroke-linejoin:round;stroke-miterlimit:10" />
			<line
   class="st12"
   x1="132.60001"
   y1="150.5"
   x2="133.7"
   y2="157.8"
   id="line4298"
   style="fill:none;stroke:#ffffff;stroke-width:3;stroke-linecap:round;stroke-linejoin:round;stroke-miterlimit:10" />
			<line
   class="st12"
   x1="121.1"
   y1="139"
   x2="121.1"
   y2="146.39999"
   id="line4300"
   style="fill:none;stroke:#ffffff;stroke-width:3;stroke-linecap:round;stroke-linejoin:round;stroke-miterlimit:10" />
			<line
   class="st12"
   x1="121.1"
   y1="150.60001"
   x2="121"
   y2="157.89999"
   id="line4302"
   style="fill:none;stroke:#ffffff;stroke-width:3;stroke-linecap:round;stroke-linejoin:round;stroke-miterlimit:10" />
			<line
   class="st12"
   x1="142.2"
   y1="139"
   x2="143.7"
   y2="146.2"
   id="line4304"
   style="fill:none;stroke:#ffffff;stroke-width:3;stroke-linecap:round;stroke-linejoin:round;stroke-miterlimit:10" />
			<line
   class="st12"
   x1="144.60001"
   y1="150.3"
   x2="146.10001"
   y2="157.5"
   id="line4306"
   style="fill:none;stroke:#ffffff;stroke-width:3;stroke-linecap:round;stroke-linejoin:round;stroke-miterlimit:10" />
			<circle
   class="st12"
   cx="135.10001"
   cy="110.2"
   r="3.7"
   id="circle4308"
   style="fill:none;stroke:#ffffff;stroke-width:3;stroke-linecap:round;stroke-linejoin:round;stroke-miterlimit:10" />
			<circle
   class="st12"
   cx="107.1"
   cy="110.2"
   r="3.7"
   id="circle4310"
   style="fill:none;stroke:#ffffff;stroke-width:3;stroke-linecap:round;stroke-linejoin:round;stroke-miterlimit:10" />
		</g>
	</g>
</g>

</svg>