<?xml version="1.0" encoding="utf-8"?>
<!-- Generator: Adobe Illustrator 22.0.1, SVG Export Plug-In . SVG Version: 6.00 Build 0)  -->
<svg version="1.1" id="Слой_1" xmlns="http://www.w3.org/2000/svg" xmlns:xlink="http://www.w3.org/1999/xlink" x="0px" y="0px"
	 viewBox="0 0 38 38" style="enable-background:new 0 0 38 38;" xml:space="preserve">
<style type="text/css">
	.st0{fill:#FFFFFF;}
</style>
<g>
	<path class="st0" d="M27.6,11.4c0,0.8-0.1,1.6-0.3,2.3c-0.7,2.5-2.4,4.5-4.6,5.6c-1.2-0.3-2.6-0.5-3.9-0.5c-1.4,0-2.7,0.2-3.9,0.5
		c-2.3-1.1-4-3.2-4.6-5.6c-0.2-0.7-0.3-1.5-0.3-2.3c0-4.9,4-8.9,8.9-8.9S27.6,6.5,27.6,11.4z"/>
	<path class="st0" d="M1,35.5c0-6.9,5.5-12.7,13.1-14.4c1.6-0.4,3.2-0.6,4.9-0.6s3.4,0.2,4.9,0.6C31.5,22.8,37,28.6,37,35.5"/>
</g>
</svg>
