<?xml version="1.0" encoding="UTF-8" standalone="no"?>
<svg
   xmlns:dc="http://purl.org/dc/elements/1.1/"
   xmlns:cc="http://creativecommons.org/ns#"
   xmlns:rdf="http://www.w3.org/1999/02/22-rdf-syntax-ns#"
   xmlns:svg="http://www.w3.org/2000/svg"
   xmlns="http://www.w3.org/2000/svg"
   version="1.1"
   id="svg2"
   viewBox="0 0 442.00003 75.999997"
   height="76"
   width="442">
  <defs
     id="defs4">
    <filter
       id="filter3338"
       style="color-interpolation-filters:sRGB"
       height="1.5"
       y="-0.25">
      <feGaussianBlur
         id="feGaussianBlur3340"
         result="result6"
         stdDeviation="5" />
      <feComposite
         id="feComposite3342"
         in2="result6"
         operator="atop"
         in="SourceGraphic"
         result="result8" />
      <feComposite
         id="feComposite3344"
         in="result8"
         in2="SourceAlpha"
         operator="over"
         result="result9" />
      <feColorMatrix
         id="feColorMatrix3346"
         result="result10"
         values="1 0 0 0 0 0 1 0 0 0 0 0 1 0 0 0 0 0 1 0 " />
      <feBlend
         id="feBlend3348"
         in2="result6"
         mode="normal"
         in="result10" />
    </filter>
  </defs>
  <metadata
     id="metadata7">
    <rdf:RDF>
      <cc:Work
         rdf:about="">
        <dc:format>image/svg+xml</dc:format>
        <dc:type
           rdf:resource="http://purl.org/dc/dcmitype/StillImage" />
        <dc:title></dc:title>
      </cc:Work>
    </rdf:RDF>
  </metadata>
  <g
     transform="translate(-198.90509,-265.6877)"
     id="layer1">
    <g
       transform="translate(2.0000001,0)"
       id="g3485">
      <text
         xml:space="preserve"
         style="font-style:normal;font-weight:normal;font-size:40px;line-height:125%;font-family:sans-serif;letter-spacing:0px;word-spacing:0px;fill:#666666;fill-opacity:1;stroke:none;stroke-width:1px;stroke-linecap:butt;stroke-linejoin:miter;stroke-opacity:1"
         x="276.28571"
         y="302.93362"
         id="text3384"><tspan
           id="tspan3386"
           x="276.28571"
           y="302.93362">Нахрен Новости</tspan></text>
      <text
         xml:space="preserve"
         style="font-style:normal;font-weight:normal;font-size:20px;line-height:125%;font-family:sans-serif;letter-spacing:0px;word-spacing:0px;fill:#808080;fill-opacity:1;stroke:none;stroke-width:1px;stroke-linecap:butt;stroke-linejoin:miter;stroke-opacity:1"
         x="255.42856"
         y="332.93362"
         id="text3388"><tspan
           id="tspan3390"
           x="255.42856"
           y="332.93362">новости альтернативной вселенной</tspan></text>
      <g
         id="g3478"
         transform="matrix(0.83163722,0,0,0.73636112,64.377596,87.978273)">
        <ellipse
           transform="matrix(0.58901454,0,0,0.42856444,136.74313,181.35146)"
           ry="41.42857"
           rx="40.714287"
           cy="318.64792"
           cx="95.285713"
           id="path3336"
           style="fill:#808080;fill-opacity:1;filter:url(#filter3338)" />
        <path
           d="m 174.34366,306.25976 c -1.4212,-0.69176 -2.77039,-1.52005 -4.04158,-2.45798 -1.28767,-0.83521 -2.40652,-1.8995 -3.4729,-2.996 -1.02338,-0.95741 -2.03668,-1.90761 -2.86,-3.04613 -0.68903,-0.89046 -1.02569,-1.92984 -1.20238,-3.02473 -0.0267,-1.20455 -0.23612,-2.37624 -0.47321,-3.55362 -0.31307,-1.29738 -0.53945,-2.60525 -0.53036,-3.94132 -0.0233,-1.16683 0.36295,-2.21846 0.90054,-3.23178 0.65415,-1.18746 1.57399,-2.17255 2.51625,-3.13209 2.41487,-2.16144 5.47329,-3.6287 8.23083,-5.22245 -0.47768,0.32659 1.90995,-1.04102 1.43863,-0.76966 -8.32818,4.79483 -1.10021,0.60112 1.29461,-0.73896 0.37021,-0.20717 0.77167,-0.35284 1.15445,-0.53574 0.98466,-0.51368 2.06015,-0.80456 3.10351,-1.1724 1.52709,-0.53786 3.15483,-0.56701 4.75074,-0.70855 3.62417,-0.44689 7.23844,-0.95932 10.84732,-1.51588 3.53098,-0.53869 7.051,-1.18496 10.51763,-2.04913 0.84196,-0.2168 1.70468,-0.43636 2.5044,-0.78822 0.15814,-0.0696 0.606,-0.33207 0.45605,-0.24627 -4.41815,2.52794 -5.42201,3.20248 -3.75372,2.10084 1.19323,-1.00717 2.37364,-2.03326 3.54224,-3.07005 1.16711,-1.03815 2.28782,-2.12648 3.39827,-3.22449 0.67996,-0.74498 1.3644,-1.48304 2.15736,-2.10906 0.14841,-0.10486 0.29682,-0.20972 0.44523,-0.31458 0,0 4.84553,-1.91203 4.84553,-1.91203 l 0,0 c -0.1437,0.10228 -0.28741,0.20457 -0.43112,0.30685 -0.85768,0.55236 -1.56538,1.29352 -2.23941,2.05446 -1.12912,1.10524 -2.26177,2.20744 -3.43392,3.2673 -1.14459,1.01888 -2.34131,1.98501 -3.4133,3.08104 -2.51728,1.89194 -5.03452,3.30159 -8.05063,3.88185 -3.43939,0.74018 -6.90116,1.3714 -10.37963,1.89917 -3.66944,0.5747 -7.34536,1.10265 -11.02395,1.61527 -1.639,0.18652 -3.29389,0.3482 -4.85019,0.93358 -1.03624,0.35434 -2.08173,0.69116 -3.05362,1.20492 -0.37219,0.17498 -1.46376,0.74812 -1.1108,0.53701 1.25056,-0.74795 5.04288,-2.92272 3.77732,-2.20043 -2.15652,1.2308 -4.26624,2.54288 -6.46857,3.69077 7.50695,-4.35182 2.07542,-1.34168 0.52926,0.0155 -0.91476,0.94801 -1.9017,1.83318 -2.55593,2.99621 -0.53378,0.94263 -1.01654,1.89312 -1.00202,3.00915 -0.0728,1.30356 0.11271,2.58035 0.4327,3.84624 0.28556,1.17121 0.52365,2.34867 0.5459,3.55853 0.13235,1.02369 0.4144,1.99216 1.05015,2.82778 0.78819,1.12985 1.8054,2.03975 2.79419,2.99082 1.05204,1.06588 2.14373,2.10779 3.38712,2.95016 1.26177,0.9147 2.60031,1.75825 4.09848,2.22814 0,0 -4.37147,2.966 -4.37147,2.966 z"
           id="path3474"
           style="fill:#808080;fill-opacity:1" />
        <path
           transform="matrix(0.84205443,0,0,0.86034225,39.879876,38.798409)"
           d="m 225.35714,261.64792 -8.90484,-0.89474 -5.78536,6.82837 -1.90081,-8.74551 -8.28193,-3.39212 7.73009,-4.51028 0.66684,-8.92481 6.67826,5.958 8.69407,-2.12372 -3.6027,8.19253 z"
           id="path3476"
           style="fill:#808080;fill-opacity:1" />
      </g>
    </g>
  </g>
</svg>
